<?xml version="1.0" ?><svg viewBox="0 0 64 64" xmlns="http://www.w3.org/2000/svg"><title/><g data-name="Layer 26" id="Layer_26"><path d="M57,46h-2a9,9,0,0,0-17.88,0h-2A11,11,0,0,1,57,46ZM50.9,46a5,5,0,0,0-9.8,0h-2a7,7,0,0,1,13.84,0Zm-2.08,0H43.18a3,3,0,0,1,5.64,0ZM31,46a13.66,13.66,0,0,0-.37-2.23,4.5,4.5,0,0,0,2.84,0A13.66,13.66,0,0,0,33.05,46ZM29,39a3,3,0,1,1,3,3A3,3,0,0,1,29,39Zm7.84-1.21a5,5,0,0,0-9.68,0,12.19,12.19,0,0,0-1.65-1.38,7,7,0,0,1,13,0A12.19,12.19,0,0,0,36.84,37.79ZM32,28a11,11,0,0,1,10.08,6.61,11.87,11.87,0,0,0-1.84.76,9,9,0,0,0-16.48,0,11.87,11.87,0,0,0-1.84-.76A11,11,0,0,1,32,28ZM18,36A11,11,0,0,1,29,46h-2A9,9,0,0,0,9.06,46h-2A11,11,0,0,1,18,36Zm4.9,10a5,5,0,0,0-9.8,0h-2a7,7,0,0,1,13.84,0Zm-2.08,0H15.18a3,3,0,0,1,5.64,0ZM48.59,61H15.41l-9-9H57.59ZM61,50H3V48H61Z"/><path d="M49.59,29H47V27h2.59A2.42,2.42,0,0,0,52,24.59V23.41A4.4,4.4,0,0,1,56.41,19H59v2H56.41A2.42,2.42,0,0,0,54,23.41v1.18A4.4,4.4,0,0,1,49.59,29Z"/><path d="M52.59,33H50V31h2.59A2.42,2.42,0,0,0,55,28.59V27.41A4.4,4.4,0,0,1,59.41,23H62v2H59.41A2.42,2.42,0,0,0,57,27.41v1.18A4.4,4.4,0,0,1,52.59,33Z"/><path d="M17,27H14.41A4.4,4.4,0,0,1,10,22.59V21.41A2.42,2.42,0,0,0,7.59,19H5V17H7.59A4.4,4.4,0,0,1,12,21.41v1.18A2.42,2.42,0,0,0,14.41,25H17Z"/><path d="M14,31H11.41A4.4,4.4,0,0,1,7,26.59V25.41A2.42,2.42,0,0,0,4.59,23H2V21H4.59A4.4,4.4,0,0,1,9,25.41v1.18A2.42,2.42,0,0,0,11.41,29H14Z"/><path d="M38,23.12V24h.88a5.12,5.12,0,0,0,3.62-1.5h0A5.12,5.12,0,0,0,44,18.88V18h-.88a5.12,5.12,0,0,0-3.62,1.5h0A5.12,5.12,0,0,0,38,23.12Z"/><path d="M26,23.12V24h-.88a5.12,5.12,0,0,1-3.62-1.5h0A5.12,5.12,0,0,1,20,18.88V18h.88a5.12,5.12,0,0,1,3.62,1.5h0A5.12,5.12,0,0,1,26,23.12Z"/><path d="M4,10a2,2,0,0,0,0,4H47V10Z"/><path d="M60,10H49v4H60a2,2,0,0,0,0-4Z"/><path d="M4,2A2,2,0,0,0,4,6H47V2Z"/><path d="M60,2H49V6H60a2,2,0,0,0,0-4Z"/></g></svg>